<svg width="184" height="144" viewBox="0 0 184 144" fill="none" xmlns="http://www.w3.org/2000/svg">
<path d="M42 143.667C30.4722 143.667 20.6472 139.603 12.525 131.475C4.40276 123.347 0.338869 113.522 0.333313 102C0.333313 90.4723 4.3972 80.6473 12.525 72.525C20.6528 64.4028 30.4778 60.3389 42 60.3334C53.5278 60.3334 63.3555 64.3973 71.4833 72.525C79.6111 80.6528 83.6722 90.4778 83.6666 102C83.6666 113.528 79.6028 123.356 71.475 131.483C63.3472 139.611 53.5222 143.672 42 143.667ZM42 114.5C38.5278 114.5 35.5778 113.286 33.15 110.858C30.7222 108.431 29.5055 105.478 29.5 102C29.5 98.5278 30.7166 95.5778 33.15 93.15C35.5833 90.7223 38.5333 89.5056 42 89.5C45.4722 89.5 48.425 90.7167 50.8583 93.15C53.2916 95.5834 54.5055 98.5334 54.5 102C54.5 105.472 53.2861 108.425 50.8583 110.858C48.4305 113.292 45.4778 114.506 42 114.5ZM154.5 143.667C146.444 143.667 139.569 140.82 133.875 135.125C128.181 129.431 125.333 122.556 125.333 114.5C125.333 106.444 128.181 99.5695 133.875 93.875C139.569 88.1806 146.444 85.3334 154.5 85.3334C162.556 85.3334 169.431 88.1806 175.125 93.875C180.819 99.5695 183.667 106.444 183.667 114.5C183.667 122.556 180.819 129.431 175.125 135.125C169.431 140.82 162.556 143.667 154.5 143.667ZM25.3333 52C22.9722 52 20.9944 51.2 19.4 49.6C17.8055 48 17.0055 46.0223 17 43.6667C17 41.3056 17.8 39.3278 19.4 37.7334C21 36.1389 22.9778 35.3389 25.3333 35.3334H50.3333C54.9166 35.3334 58.8416 36.9667 62.1083 40.2334C65.375 43.5 67.0055 47.4223 67 52H25.3333ZM42 127C48.9444 127 54.8472 124.569 59.7083 119.708C64.5694 114.847 67 108.944 67 102C67 95.0556 64.5694 89.1528 59.7083 84.2917C54.8472 79.4306 48.9444 77 42 77C35.0555 77 29.1528 79.4306 24.2916 84.2917C19.4305 89.1528 17 95.0556 17 102C17 108.944 19.4305 114.847 24.2916 119.708C29.1528 124.569 35.0555 127 42 127ZM154.5 127C157.972 127 160.925 125.786 163.358 123.358C165.792 120.931 167.006 117.978 167 114.5C167 111.028 165.786 108.078 163.358 105.65C160.931 103.222 157.978 102.006 154.5 102C151.028 102 148.078 103.217 145.65 105.65C143.222 108.083 142.006 111.033 142 114.5C142 117.972 143.217 120.925 145.65 123.358C148.083 125.792 151.033 127.006 154.5 127ZM91.1666 110.333H117.417C118.806 100.333 123.144 92.3473 130.433 86.375C137.722 80.4028 145.953 77.4167 155.125 77.4167C158.597 77.4167 162.036 77.9028 165.442 78.875C168.847 79.8473 172.144 81.3056 175.333 83.25V43.6667C175.333 39.0834 173.703 35.1612 170.442 31.9C167.181 28.6389 163.256 27.0056 158.667 27H106.167L97.4166 17.8334L109.083 6.16671L103.25 0.333374L73.6666 29.9167L79.9166 35.75L91.5833 24.0834L100.333 32.8334V52C100.333 56.5834 98.7028 60.5084 95.4416 63.775C92.1805 67.0417 88.2555 68.6723 83.6666 68.6667H79.0833C83.25 73.25 86.4111 78.3889 88.5666 84.0834C90.7222 89.7778 91.7972 95.75 91.7916 102C91.7916 103.389 91.7555 104.778 91.6833 106.167C91.6111 107.556 91.4389 108.944 91.1666 110.333Z" fill="#075E1A"/>
</svg>
