<svg width="200" height="121" viewBox="0 0 200 121" fill="none" xmlns="http://www.w3.org/2000/svg">
<path d="M135.844 0H109C106.5 0 104.094 0.9375 102.25 2.625L71.5312 30.75C71.5 30.7812 71.4688 30.8438 71.4375 30.875C66.25 35.75 66.3438 43.5312 70.7812 48.375C74.75 52.7188 83.0938 53.875 88.3125 49.2188C88.3438 49.1875 88.4062 49.1875 88.4375 49.1562L113.406 26.2813C115.438 24.4375 118.625 24.5625 120.469 26.5938C122.344 28.625 122.188 31.7812 120.156 33.6562L112 41.125L157.5 78.0625C158.406 78.8125 159.219 79.625 159.969 80.4688V20L142.906 2.9375C141.062 1.0625 138.5 0 135.844 0ZM170 20.0625V90.0312C170 95.5625 174.469 100.031 180 100.031H200V20.0625H170ZM185 90.0312C182.25 90.0312 180 87.7812 180 85.0312C180 82.2812 182.25 80.0312 185 80.0312C187.75 80.0312 190 82.2812 190 85.0312C190 87.7812 187.75 90.0312 185 90.0312ZM0 100H20C25.5312 100 30 95.5312 30 90V20.0625H0V100ZM15 80.0312C17.75 80.0312 20 82.2812 20 85.0312C20 87.7812 17.75 90.0312 15 90.0312C12.25 90.0312 10 87.7812 10 85.0312C10 82.25 12.25 80.0312 15 80.0312ZM151.219 85.8438L104.562 47.9688L95.1875 56.5625C85.9062 65.0312 71.6875 64.2188 63.4062 55.1875C55 46 55.6562 31.7812 64.7812 23.4062L90.3438 0H64.1562C61.5 0 58.9688 1.0625 57.0938 2.9375L40 20V89.9688H45.7188L74 115.562C82.5625 122.531 95.1562 121.219 102.125 112.656L102.188 112.594L107.781 117.438C112.75 121.5 120.094 120.719 124.125 115.75L133.938 103.688L135.625 105.062C139.906 108.531 146.219 107.906 149.688 103.594L152.656 99.9375C156.156 95.625 155.5 89.3438 151.219 85.8438Z" fill="#075E1A"/>
</svg>
