<svg width="168" height="168" viewBox="0 0 168 168" fill="none" xmlns="http://www.w3.org/2000/svg">
<path d="M46.5 50.6666C53.1304 50.6666 59.4893 48.0327 64.1777 43.3443C68.8661 38.6559 71.5 32.297 71.5 25.6666C71.5 19.0362 68.8661 12.6774 64.1777 7.98896C59.4893 3.30055 53.1304 0.666626 46.5 0.666626C39.8696 0.666626 33.5107 3.30055 28.8223 7.98896C24.1339 12.6774 21.5 19.0362 21.5 25.6666C21.5 32.297 24.1339 38.6559 28.8223 43.3443C33.5107 48.0327 39.8696 50.6666 46.5 50.6666ZM0.666672 73.7333C0.666672 65.5833 7.25834 59 15.4 59H55.125C52.195 64.0651 50.6569 69.8151 50.6667 75.6666C50.6611 80.3965 51.6646 85.0732 53.6104 89.3843C55.5562 93.6954 58.3993 97.5418 61.95 100.667H52.9C48.2033 100.667 43.6185 102.1 39.7575 104.774C35.8965 107.448 32.9431 111.237 31.2917 115.633C18.8083 112.583 11.0667 105.775 6.50834 98.1916C0.666672 88.4666 0.666672 78.4666 0.666672 76.725V73.7333ZM117.333 75.6666C117.344 69.8151 115.805 64.065 112.875 59H152.6C160.75 59 167.333 65.5916 167.333 73.7333V76.7333C167.333 78.4583 167.333 88.4666 161.5 98.1916C156.933 105.775 149.192 112.583 136.708 115.633C135.058 111.236 132.105 107.447 128.244 104.772C124.382 102.098 119.797 100.666 115.1 100.667H106.05C109.601 97.5418 112.444 93.6954 114.39 89.3843C116.335 85.0732 117.339 80.3965 117.333 75.6666ZM146.5 25.6666C146.5 32.297 143.866 38.6559 139.178 43.3443C134.489 48.0327 128.13 50.6666 121.5 50.6666C114.87 50.6666 108.511 48.0327 103.822 43.3443C99.1339 38.6559 96.5 32.297 96.5 25.6666C96.5 19.0362 99.1339 12.6774 103.822 7.98896C108.511 3.30055 114.87 0.666626 121.5 0.666626C128.13 0.666626 134.489 3.30055 139.178 7.98896C143.866 12.6774 146.5 19.0362 146.5 25.6666ZM38.1667 123.733C38.1667 115.583 44.7583 109 52.9 109H115.1C123.242 109 129.833 115.592 129.833 123.733V126.733C129.833 128.458 129.833 138.467 124 148.192C117.808 158.475 105.775 167.333 84 167.333C62.225 167.333 50.1833 158.475 44 148.192C38.1667 138.467 38.1667 128.467 38.1667 126.725V123.733ZM84 100.667C87.2831 100.667 90.534 100.02 93.5671 98.7636C96.6002 97.5073 99.3562 95.6658 101.678 93.3443C103.999 91.0228 105.841 88.2669 107.097 85.2337C108.353 82.2006 109 78.9497 109 75.6666C109 72.3836 108.353 69.1327 107.097 66.0995C105.841 63.0664 103.999 60.3104 101.678 57.989C99.3562 55.6675 96.6002 53.826 93.5671 52.5696C90.534 51.3133 87.2831 50.6666 84 50.6666C77.3696 50.6666 71.0107 53.3005 66.3223 57.989C61.6339 62.6774 59 69.0362 59 75.6666C59 82.297 61.6339 88.6559 66.3223 93.3443C71.0107 98.0327 77.3696 100.667 84 100.667Z" fill="#075E1A"/>
</svg>
