<svg width="41" height="31" viewBox="0 0 41 31" fill="none" xmlns="http://www.w3.org/2000/svg">
<path d="M0.75 2.37498V28.625C0.75 30.2375 2.6475 31.0962 3.86062 30.0369L18.8606 16.9119C19.062 16.7359 19.2234 16.5188 19.334 16.2753C19.4446 16.0318 19.5018 15.7674 19.5018 15.5C19.5018 15.2325 19.4446 14.9682 19.334 14.7246C19.2234 14.4811 19.062 14.2641 18.8606 14.0881L3.86062 0.963103C2.6475 -0.0962716 0.75 0.764353 0.75 2.37498ZM21.375 2.37498V28.625C21.375 30.2375 23.2725 31.0962 24.4856 30.0369L39.4856 16.9119C39.687 16.7359 39.8484 16.5188 39.959 16.2753C40.0696 16.0318 40.1268 15.7674 40.1268 15.5C40.1268 15.2325 40.0696 14.9682 39.959 14.7246C39.8484 14.4811 39.687 14.2641 39.4856 14.0881L24.4856 0.963103C23.2725 -0.0962716 21.375 0.764353 21.375 2.37498Z" fill="#FFF3E4"/>
</svg>
