<svg width="45" height="41" viewBox="0 0 45 41" fill="none" xmlns="http://www.w3.org/2000/svg">
<mask id="mask0_13_555" style="mask-type:luminance" maskUnits="userSpaceOnUse" x="2" y="0" width="41" height="38">
<path d="M4.305 14.2503C4.23881 13.9747 4.23598 13.6876 4.29674 13.4107C4.35749 13.1338 4.48024 12.8743 4.65576 12.6516C4.83127 12.429 5.05498 12.2491 5.31006 12.1254C5.56514 12.0017 5.84495 11.9375 6.12844 11.9375H38.8716C39.1551 11.9375 39.4349 12.0017 39.6899 12.1254C39.945 12.2491 40.1687 12.429 40.3443 12.6516C40.5198 12.8743 40.6425 13.1338 40.7033 13.4107C40.764 13.6876 40.7612 13.9747 40.695 14.2503L35.97 33.9378C35.8717 34.3474 35.6383 34.7119 35.3075 34.9726C34.9767 35.2333 34.5678 35.3751 34.1466 35.375H10.8534C10.4323 35.3751 10.0233 35.2333 9.69252 34.9726C9.36173 34.7119 9.12835 34.3474 9.03 33.9378L4.305 14.2503Z" fill="white" stroke="white" stroke-width="4" stroke-linecap="round" stroke-linejoin="round"/>
<path d="M17.8125 11.9375V2.5625H10.3125V11.9375H17.8125ZM17.8125 11.9375L23.9062 3.5L35.625 11.9375" stroke="white" stroke-width="4" stroke-linecap="round" stroke-linejoin="round"/>
<path d="M14.0625 19.4375H21.5625" stroke="black" stroke-width="4" stroke-linecap="round"/>
</mask>
<g mask="url(#mask0_13_555)">
<path d="M0 -4H45V41H0V-4Z" fill="#FFF3E4"/>
</g>
</svg>
