<svg width="89" height="61" viewBox="0 0 89 61" fill="none" xmlns="http://www.w3.org/2000/svg">
<path d="M32 57.6L23.92 60.96H17.04L7.36 56.64L1.52 46.4L0.0800002 37.76V24.48L5.92 10.96L15.12 3.2L23.6 2.88L30.48 5.84L37.68 14.16L40.64 30.24L40.08 42.64L36.48 51.76L32 57.6ZM16.4 6.88L11.36 14.32L8.16 28.72L9.68 43.76L12.4 53.2L17.52 57.68H23.2L28.24 53.92L30.64 46.64L32.24 32.16L29.68 13.2L23.44 6.24L16.4 6.88ZM72.1081 12.24L67.3081 20.08L59.0681 32.4L53.6281 38.64L72.4281 38.56L71.9481 21.76L72.3481 12.24H72.1081ZM72.2681 51.44V43.36L48.1081 44.16L47.1481 40.64L56.3481 28.64L73.9481 2.4L79.4681 0.959997L80.3481 3.84L79.5481 8.32V30.16L79.9481 38.24L88.2681 37.76L87.4681 44.4L79.5481 43.84V52.08L79.9481 56L85.7081 57.6L85.3081 60.4L75.5481 60L65.7081 60.4L65.8681 57.6L71.7081 56.24L72.2681 51.44Z" fill="#3C710A"/>
</svg>
