<svg width="84" height="59" viewBox="0 0 84 59" fill="none" xmlns="http://www.w3.org/2000/svg">
<path d="M32 55.6L23.92 58.96H17.04L7.36 54.64L1.52 44.4L0.0800002 35.76V22.48L5.92 8.96L15.12 1.2L23.6 0.879996L30.48 3.84L37.68 12.16L40.64 28.24L40.08 40.64L36.48 49.76L32 55.6ZM16.4 4.88L11.36 12.32L8.16 26.72L9.68 41.76L12.4 51.2L17.52 55.68H23.2L28.24 51.92L30.64 44.64L32.24 30.16L29.68 11.2L23.44 4.24L16.4 4.88ZM77.6281 52.24L79.3881 43.76L81.9481 44L83.0681 58.8L76.7481 58H51.4681L50.2681 58.8L47.3881 58L47.8681 53.6L68.5881 28.96L73.1481 14.8L71.5481 6.72L62.1081 5.04L54.8281 6.72L53.7881 16.72L50.4281 17.44L48.4281 3.68L62.6681 0.399998L75.3081 2.4L80.9081 7.84L81.7081 18.08L74.5881 31.44L54.3481 52.8L54.5881 53.04L77.6281 52.24Z" fill="#3C710A"/>
</svg>
