<svg width="82" height="60" viewBox="0 0 82 60" fill="none" xmlns="http://www.w3.org/2000/svg">
<path d="M32 55.6L23.92 58.96H17.04L7.36 54.64L1.52 44.4L0.0800002 35.76V22.48L5.92 8.96L15.12 1.2L23.6 0.879996L30.48 3.84L37.68 12.16L40.64 28.24L40.08 40.64L36.48 49.76L32 55.6ZM16.4 4.88L11.36 12.32L8.16 26.72L9.68 41.76L12.4 51.2L17.52 55.68H23.2L28.24 51.92L30.64 44.64L32.24 30.16L29.68 11.2L23.44 4.24L16.4 4.88ZM80.7481 49.84L73.1481 56.96L61.8681 59.28L55.3081 58.64L48.4281 56.32L50.4281 43.2L53.3081 43.6L54.6681 53.92L61.2281 55.36L70.1881 53.04L73.7881 43.76L71.8681 36.24L65.6281 31.52L59.1481 30.56V27.36L65.3081 26L70.2681 21.36L71.7881 13.36L69.6281 7.68L63.7081 4.8L55.6281 6.56L54.1081 16.4L51.2281 16.8L49.3881 4.16L61.6281 0.399998L71.2281 1.68L78.2681 7.6L79.1481 14.56L77.3881 20.56L73.8681 25.52L67.2281 28.24V28.56L76.5881 31.2L81.6281 38.56L80.7481 49.84Z" fill="#3C710A"/>
</svg>
