<svg width="72" height="59" viewBox="0 0 72 59" fill="none" xmlns="http://www.w3.org/2000/svg">
<path d="M32 55.6L23.92 58.96H17.04L7.36 54.64L1.52 44.4L0.0800002 35.76V22.48L5.92 8.96L15.12 1.2L23.6 0.879996L30.48 3.84L37.68 12.16L40.64 28.24L40.08 40.64L36.48 49.76L32 55.6ZM16.4 4.88L11.36 12.32L8.16 26.72L9.68 41.76L12.4 51.2L17.52 55.68H23.2L28.24 51.92L30.64 44.64L32.24 30.16L29.68 11.2L23.44 4.24L16.4 4.88ZM63.6281 11.92L63.2281 32.08L63.3881 47.04L63.8681 54L71.4681 55.6L71.0681 58.4L59.9481 58L48.5881 58.4L48.7481 55.6L55.5481 54.72L56.0281 45.04L55.9481 16.88L55.3881 8.32H47.1481L47.3881 5.04L61.4681 1.92L64.4281 2.8L63.6281 11.92Z" fill="#3C710A"/>
</svg>
