<svg width="175" height="44" viewBox="0 0 175 44" fill="none" xmlns="http://www.w3.org/2000/svg">
<path d="M22 44C34.1503 44 44 34.1503 44 22C44 9.84974 34.1503 0 22 0C9.84974 0 0 9.84974 0 22C0 34.1503 9.84974 44 22 44Z" fill="#7DC138"/>
<path fill-rule="evenodd" clip-rule="evenodd" d="M31.2198 19.1885L31.3124 19.3617L31.2198 19.3738V19.1885ZM31.2198 32.4803V32.0131C31.8522 30.0637 32.8551 27.8967 35.0341 26.1083L39.3439 33.9223H32.0133L31.2198 32.4803ZM22.0001 2.46497L31.2198 19.1885V19.3738C29.4314 19.6356 27.6471 19.9216 25.899 20.2921C25.4882 20.3807 25.0733 20.4694 24.6584 20.5741L22.0001 15.7568L11.9829 33.9223H4.65625L22.0001 2.46497ZM31.2198 32.0131L31.1271 32.3112L31.2198 32.4844V32.0131Z" fill="white"/>
<path fill-rule="evenodd" clip-rule="evenodd" d="M34.3292 24.8315L35.0341 26.1084C33.858 28.3438 32.6496 30.5712 31.1271 32.3112L30.3256 30.8531C31.981 29.1252 33.2377 26.8898 34.3292 24.8315Z" fill="white"/>
<path fill-rule="evenodd" clip-rule="evenodd" d="M37.1567 18.9106C32.5811 25.8425 30.3376 37.3299 17.8956 32.126C19.539 27.1274 21.9879 24.1911 29.818 22.1047C20.8722 23.5588 17.8714 26.3339 15.7689 33.5317C15.491 20.4896 23.5587 21.1541 37.1567 18.9106Z" fill="white"/>
<path d="M70.5532 32L69.2593 27.752H62.7529L61.459 32H57.3818L63.6807 14.0801H68.3071L74.6304 32H70.5532ZM68.356 24.5781L67.062 20.4277C66.9806 20.151 66.8708 19.797 66.7324 19.3657C66.6022 18.9263 66.4679 18.4827 66.3296 18.0352C66.1994 17.5794 66.0936 17.1847 66.0122 16.8511C65.9308 17.1847 65.8169 17.5998 65.6704 18.0962C65.5321 18.5845 65.3978 19.0483 65.2676 19.4878C65.1374 19.9272 65.0438 20.2406 64.9868 20.4277L63.7051 24.5781H68.356ZM80.5874 38.0059C78.6831 38.0059 77.2264 37.6722 76.2173 37.0049C75.2163 36.3457 74.7158 35.418 74.7158 34.2217C74.7158 33.3997 74.9722 32.7121 75.4849 32.1587C75.9976 31.6053 76.7503 31.2106 77.7432 30.9746C77.3607 30.8118 77.027 30.5474 76.7422 30.1812C76.4574 29.8068 76.3149 29.4121 76.3149 28.9971C76.3149 28.4762 76.4655 28.0449 76.7666 27.7031C77.0677 27.3532 77.5031 27.0114 78.0728 26.6777C77.3566 26.3685 76.7869 25.8721 76.3638 25.1885C75.9487 24.5049 75.7412 23.6992 75.7412 22.7715C75.7412 21.7786 75.9569 20.9364 76.3882 20.2446C76.8276 19.5448 77.4624 19.0117 78.2925 18.6455C79.1307 18.2793 80.1479 18.0962 81.3442 18.0962C81.5965 18.0962 81.8895 18.1125 82.2231 18.145C82.5568 18.1776 82.862 18.2142 83.1387 18.2549C83.4235 18.2956 83.6147 18.3281 83.7124 18.3525H88.4731V20.2446L86.3369 20.7939C86.5322 21.0951 86.6787 21.4165 86.7764 21.7583C86.874 22.1001 86.9229 22.4622 86.9229 22.8447C86.9229 24.3096 86.4102 25.453 85.3848 26.2749C84.3675 27.0887 82.9515 27.4956 81.1367 27.4956C80.7054 27.4712 80.2985 27.4386 79.916 27.3979C79.7288 27.5444 79.5864 27.6991 79.4888 27.8618C79.3911 28.0246 79.3423 28.1955 79.3423 28.3745C79.3423 28.5535 79.4155 28.7041 79.562 28.8262C79.7166 28.9401 79.9445 29.0296 80.2456 29.0947C80.5549 29.1517 80.9373 29.1802 81.3931 29.1802H83.7124C85.2098 29.1802 86.3491 29.5016 87.1304 30.1445C87.9198 30.7874 88.3145 31.7314 88.3145 32.9766C88.3145 34.5716 87.6471 35.8086 86.3125 36.6875C84.986 37.5664 83.0776 38.0059 80.5874 38.0059ZM80.7461 35.5767C81.6331 35.5767 82.394 35.4912 83.0288 35.3203C83.6717 35.1576 84.1641 34.9215 84.5059 34.6123C84.8477 34.3112 85.0186 33.9491 85.0186 33.5259C85.0186 33.1841 84.9168 32.9115 84.7134 32.708C84.5181 32.5127 84.217 32.3743 83.8101 32.293C83.4113 32.2116 82.8986 32.1709 82.272 32.1709H80.3433C79.8875 32.1709 79.4766 32.2441 79.1104 32.3906C78.7523 32.5371 78.4674 32.7406 78.2559 33.001C78.0443 33.2695 77.9385 33.5788 77.9385 33.9287C77.9385 34.4414 78.1826 34.8442 78.6709 35.1372C79.1673 35.4302 79.859 35.5767 80.7461 35.5767ZM81.3442 25.2251C82.0441 25.2251 82.5568 25.0094 82.8823 24.5781C83.2078 24.1468 83.3706 23.5609 83.3706 22.8203C83.3706 21.9984 83.1997 21.384 82.8579 20.9771C82.5243 20.562 82.0197 20.3545 81.3442 20.3545C80.6606 20.3545 80.1479 20.562 79.8062 20.9771C79.4644 21.384 79.2935 21.9984 79.2935 22.8203C79.2935 23.5609 79.4603 24.1468 79.7939 24.5781C80.1357 25.0094 80.6525 25.2251 81.3442 25.2251ZM98.3486 18.0962C98.5358 18.0962 98.7515 18.1084 98.9956 18.1328C99.2479 18.1491 99.4513 18.1735 99.606 18.2061L99.3252 21.6973C99.2031 21.6566 99.0282 21.6281 98.8003 21.6118C98.5806 21.5874 98.3893 21.5752 98.2266 21.5752C97.7464 21.5752 97.2785 21.6362 96.8228 21.7583C96.3752 21.8804 95.9723 22.0798 95.6143 22.3564C95.2562 22.625 94.9714 22.9831 94.7598 23.4307C94.5563 23.8701 94.4546 24.4113 94.4546 25.0542V32H90.7314V18.3525H93.5513L94.1006 20.6475H94.2837C94.5522 20.1836 94.8859 19.7604 95.2847 19.3779C95.6916 18.9873 96.1514 18.6781 96.6641 18.4502C97.1849 18.2142 97.7464 18.0962 98.3486 18.0962ZM114.486 25.1519C114.486 26.2912 114.332 27.3003 114.022 28.1792C113.721 29.0581 113.278 29.8027 112.692 30.4131C112.114 31.0153 111.414 31.471 110.592 31.7803C109.778 32.0895 108.859 32.2441 107.833 32.2441C106.873 32.2441 105.99 32.0895 105.185 31.7803C104.387 31.471 103.691 31.0153 103.097 30.4131C102.511 29.8027 102.056 29.0581 101.73 28.1792C101.413 27.3003 101.254 26.2912 101.254 25.1519C101.254 23.6382 101.522 22.3564 102.06 21.3066C102.597 20.2568 103.362 19.4593 104.354 18.9141C105.347 18.3688 106.531 18.0962 107.907 18.0962C109.184 18.0962 110.316 18.3688 111.3 18.9141C112.293 19.4593 113.07 20.2568 113.632 21.3066C114.201 22.3564 114.486 23.6382 114.486 25.1519ZM105.05 25.1519C105.05 26.047 105.148 26.7998 105.343 27.4102C105.539 28.0205 105.844 28.4803 106.259 28.7896C106.674 29.0988 107.215 29.2534 107.882 29.2534C108.542 29.2534 109.075 29.0988 109.481 28.7896C109.896 28.4803 110.198 28.0205 110.385 27.4102C110.58 26.7998 110.678 26.047 110.678 25.1519C110.678 24.2485 110.58 23.4998 110.385 22.9058C110.198 22.3035 109.896 21.8519 109.481 21.5508C109.066 21.2497 108.525 21.0991 107.858 21.0991C106.873 21.0991 106.157 21.4368 105.709 22.1123C105.27 22.7878 105.05 23.8009 105.05 25.1519ZM139.779 14.1533L135.238 32H130.929L128.512 22.625C128.463 22.446 128.398 22.1733 128.317 21.8071C128.236 21.4409 128.15 21.0422 128.061 20.6108C127.971 20.1714 127.89 19.7604 127.816 19.3779C127.751 18.9873 127.707 18.6781 127.682 18.4502C127.658 18.6781 127.609 18.9832 127.536 19.3657C127.471 19.7482 127.393 20.1551 127.304 20.5864C127.222 21.0177 127.141 21.4206 127.06 21.7949C126.978 22.1693 126.913 22.4541 126.864 22.6494L124.459 32H120.163L115.609 14.1533H119.333L121.615 23.8945C121.68 24.1875 121.754 24.5374 121.835 24.9443C121.924 25.3512 122.01 25.7785 122.091 26.2261C122.181 26.6655 122.258 27.0928 122.323 27.5078C122.396 27.9147 122.449 28.2687 122.482 28.5698C122.523 28.2606 122.576 27.9025 122.641 27.4956C122.706 27.0806 122.775 26.6615 122.848 26.2383C122.93 25.807 123.011 25.4082 123.092 25.042C123.174 24.6758 123.247 24.3787 123.312 24.1509L125.912 14.1533H129.489L132.089 24.1509C132.146 24.3706 132.211 24.6676 132.284 25.042C132.366 25.4082 132.447 25.807 132.528 26.2383C132.61 26.6696 132.683 27.0928 132.748 27.5078C132.821 27.9147 132.874 28.2687 132.907 28.5698C132.964 28.1629 133.041 27.6706 133.139 27.0928C133.244 26.5068 133.354 25.925 133.468 25.3472C133.59 24.7694 133.696 24.2852 133.786 23.8945L136.056 14.1533H139.779ZM145.456 18.3525V32H141.732V18.3525H145.456ZM143.6 13.0059C144.153 13.0059 144.63 13.1361 145.028 13.3965C145.427 13.6488 145.626 14.1248 145.626 14.8247C145.626 15.5164 145.427 15.9966 145.028 16.2651C144.63 16.5256 144.153 16.6558 143.6 16.6558C143.039 16.6558 142.558 16.5256 142.16 16.2651C141.769 15.9966 141.574 15.5164 141.574 14.8247C141.574 14.1248 141.769 13.6488 142.16 13.3965C142.558 13.1361 143.039 13.0059 143.6 13.0059ZM158.896 27.9473C158.896 28.875 158.676 29.6603 158.236 30.3032C157.805 30.938 157.158 31.4222 156.295 31.7559C155.433 32.0814 154.359 32.2441 153.073 32.2441C152.121 32.2441 151.303 32.1831 150.619 32.061C149.944 31.939 149.26 31.7355 148.568 31.4507V28.3745C149.309 28.7082 150.102 28.9849 150.949 29.2046C151.803 29.4162 152.552 29.522 153.195 29.522C153.919 29.522 154.436 29.4162 154.745 29.2046C155.062 28.9849 155.221 28.7 155.221 28.3501C155.221 28.1222 155.156 27.9188 155.026 27.7397C154.904 27.5526 154.635 27.3451 154.22 27.1172C153.805 26.8812 153.154 26.576 152.267 26.2017C151.413 25.8436 150.709 25.4814 150.155 25.1152C149.61 24.749 149.203 24.3177 148.935 23.8213C148.674 23.3167 148.544 22.6779 148.544 21.9048C148.544 20.6434 149.032 19.6953 150.009 19.0605C150.993 18.4176 152.308 18.0962 153.952 18.0962C154.798 18.0962 155.604 18.1816 156.369 18.3525C157.142 18.5234 157.935 18.7961 158.749 19.1704L157.626 21.856C156.951 21.563 156.312 21.3229 155.709 21.1357C155.115 20.9486 154.509 20.855 153.891 20.855C153.345 20.855 152.934 20.9282 152.658 21.0747C152.381 21.2212 152.243 21.445 152.243 21.7461C152.243 21.9658 152.312 22.1611 152.45 22.332C152.597 22.5029 152.873 22.6942 153.28 22.9058C153.695 23.1092 154.302 23.3737 155.099 23.6992C155.872 24.0166 156.544 24.3503 157.113 24.7002C157.683 25.042 158.122 25.4692 158.432 25.9819C158.741 26.4865 158.896 27.1416 158.896 27.9473ZM167.428 18.0962C168.69 18.0962 169.776 18.3403 170.688 18.8286C171.599 19.3088 172.303 20.0086 172.799 20.9282C173.296 21.8478 173.544 22.9709 173.544 24.2974V26.104H164.743C164.783 27.1538 165.097 27.9798 165.683 28.582C166.277 29.1761 167.099 29.4731 168.148 29.4731C169.019 29.4731 169.817 29.3836 170.541 29.2046C171.265 29.0256 172.01 28.757 172.775 28.3989V31.2798C172.099 31.6134 171.391 31.8576 170.651 32.0122C169.918 32.1668 169.027 32.2441 167.978 32.2441C166.61 32.2441 165.398 31.9919 164.34 31.4873C163.29 30.9827 162.464 30.2137 161.862 29.1802C161.268 28.1466 160.971 26.8446 160.971 25.2739C160.971 23.6789 161.239 22.3524 161.776 21.2944C162.322 20.2284 163.078 19.4308 164.047 18.9019C165.015 18.3647 166.142 18.0962 167.428 18.0962ZM167.453 20.7451C166.728 20.7451 166.126 20.9771 165.646 21.4409C165.174 21.9048 164.901 22.6331 164.828 23.626H170.053C170.045 23.0726 169.943 22.5802 169.748 22.1489C169.56 21.7176 169.276 21.3758 168.893 21.1235C168.519 20.8713 168.039 20.7451 167.453 20.7451Z" fill="black"/>
</svg>
