<svg width="44" height="44" viewBox="0 0 44 44" fill="none" xmlns="http://www.w3.org/2000/svg">
<path d="M22 44C34.1503 44 44 34.1503 44 22C44 9.84974 34.1503 0 22 0C9.84974 0 0 9.84974 0 22C0 34.1503 9.84974 44 22 44Z" fill="#20791F"/>
<path fill-rule="evenodd" clip-rule="evenodd" d="M31.2198 19.1885L31.3124 19.3617L31.2198 19.3738V19.1885ZM31.2198 32.4803V32.0131C31.8521 30.0637 32.8551 27.8967 35.0341 26.1083L39.3439 33.9223H32.0133L31.2198 32.4803ZM22.0001 2.46497L31.2198 19.1885V19.3738C29.4314 19.6356 27.6471 19.9216 25.899 20.2921C25.4882 20.3807 25.0733 20.4694 24.6584 20.5741L22.0001 15.7568L11.9829 33.9223H4.65625L22.0001 2.46497ZM31.2198 32.0131L31.1271 32.3112L31.2198 32.4844V32.0131Z" fill="white"/>
<path fill-rule="evenodd" clip-rule="evenodd" d="M34.3292 24.8315L35.0341 26.1084C33.858 28.3438 32.6496 30.5712 31.1271 32.3112L30.3256 30.8531C31.981 29.1252 33.2377 26.8898 34.3292 24.8315Z" fill="white"/>
<path fill-rule="evenodd" clip-rule="evenodd" d="M37.1567 18.9106C32.5811 25.8425 30.3376 37.3299 17.8956 32.126C19.539 27.1274 21.9879 24.1911 29.818 22.1047C20.8722 23.5588 17.8714 26.3339 15.7689 33.5317C15.491 20.4896 23.5587 21.1541 37.1567 18.9106Z" fill="white"/>
</svg>
