<svg width="533" height="484" viewBox="0 0 533 484" fill="none" xmlns="http://www.w3.org/2000/svg">
<path fill-rule="evenodd" clip-rule="evenodd" d="M407.939 257.37L409.36 260.027L407.939 260.213V257.37ZM407.939 461.279V454.111C417.64 424.205 433.026 390.961 466.455 363.526L532.57 483.4H420.112L407.939 461.279ZM266.5 0.815796L407.939 257.37V260.213C380.504 264.229 353.131 268.616 326.314 274.301C320.011 275.66 313.646 277.02 307.282 278.626L266.5 204.725L112.827 483.4H0.430176L266.5 0.815796ZM407.939 454.111L406.518 458.684L407.939 461.341V454.111Z" fill="white"/>
<path fill-rule="evenodd" clip-rule="evenodd" d="M455.641 343.939L466.454 363.526C448.412 397.82 429.874 431.99 406.517 458.684L394.221 436.316C419.617 409.808 438.896 375.514 455.641 343.939Z" fill="white"/>
<path fill-rule="evenodd" clip-rule="evenodd" d="M499.017 253.107C428.823 359.448 394.406 535.675 203.535 455.842C228.746 379.159 266.314 334.114 386.435 302.107C249.198 324.413 203.164 366.987 170.91 477.406C166.646 277.329 290.413 287.524 499.017 253.107Z" fill="white"/>
</svg>
